<svg width="354.420410" height="72.506104" viewBox="0 0 354.42 72.5061" fill="none" xmlns="http://www.w3.org/2000/svg" xmlns:xlink="http://www.w3.org/1999/xlink">
	<desc>
			Created with Pixso.
	</desc>
	<defs/>
	<path id="Rectangle 3" d="M13 0L43 0C48.52 0 53 4.47 53 10L53 40C53 45.52 48.52 50 43 50L21.67 50C20.66 50 19.74 50.6 19.33 51.54C18.45 53.59 15.54 53.59 14.66 51.54C14.25 50.6 13.33 50 12.32 50C7.17 50 3 45.82 3 40.67L3 10C3 4.47 7.47 0 13 0Z" fill="#312626" fill-opacity="1.000000" fill-rule="nonzero"/>
	<path id="VF" d="M20.25 37L29.45 16L26.46 16L18.83 33.25L11.27 16L8.04 16L17.27 37L20.25 37ZM35.13 25.93L35.13 18.6L46.94 18.6L46.94 16L32.12 16L32.12 37L35.13 37L35.13 28.51L45.65 28.51L45.65 25.93L35.13 25.93Z" fill="#FFFFFF" fill-opacity="1.000000" fill-rule="evenodd"/>
	<path id="Vintage Food" d="M87.59 20.57Q88.48 21.22 89.84 21.22Q91.22 21.22 92.1 20.56Q92.21 20.47 92.31 20.38Q92.72 20.01 92.95 19.56Q93.24 18.97 93.24 18.25Q93.24 17.61 92.99 17.09Q92.76 16.62 92.31 16.24Q92.29 16.23 92.27 16.21Q91.36 15.47 89.84 15.47Q88.48 15.47 87.59 16.11Q87.48 16.19 87.38 16.28Q86.92 16.67 86.69 17.17Q86.44 17.7 86.44 18.34Q86.44 18.99 86.69 19.52Q86.92 20.01 87.38 20.41Q87.48 20.49 87.59 20.57ZM246.92 36L246.92 17.45L241.27 17.45L241.27 23.24Q241.23 23.21 241.19 23.17Q240 22.07 237.8 22.07Q236.67 22.07 235.65 22.41Q235.05 22.61 234.48 22.93Q234.02 23.19 233.62 23.52Q232.7 24.28 232.08 25.41Q231.19 27.02 231.19 29.15Q231.19 31.27 232.08 32.89Q232.7 34.03 233.63 34.8Q234.03 35.13 234.48 35.38Q235.05 35.71 235.65 35.91Q236.67 36.25 237.8 36.25Q240.12 36.25 241.34 35.09Q241.44 34.98 241.54 34.87L241.54 36L246.92 36ZM78.72 36L86.12 18.5L80.32 18.5L76.05 28.72L71.87 18.5L65.52 18.5L72.92 36L78.72 36ZM188.12 25.94L188.12 22.95L196.44 22.95L196.44 18.5L182.22 18.5L182.22 36L188.12 36L188.12 30.39L195.42 30.39L195.42 25.94L188.12 25.94ZM119.32 36.25Q121.52 36.25 122.79 35.52L121.44 31.59Q121.3 31.69 121.14 31.77Q120.7 31.97 120.17 31.97Q119.82 31.97 119.57 31.82Q119.43 31.75 119.32 31.62Q119.31 31.61 119.29 31.6Q119 31.25 119 30.64L119 27.19L121.8 27.19L121.8 23.07L119 23.07L119 19.25L113.34 19.25L113.34 23.07L111.47 23.07L111.47 27.19L113.34 27.19L113.34 30.7Q113.34 33.16 114.57 34.53Q114.72 34.7 114.89 34.86Q116.44 36.25 119.32 36.25ZM107.92 22.94Q106.58 22.07 104.67 22.07Q103.45 22.07 102.4 22.48Q101.94 22.65 101.53 22.9Q101 23.22 100.54 23.67L100.54 22.32L95.17 22.32L95.17 36L100.82 36L100.82 29.57Q100.82 28.15 101.4 27.49Q101.64 27.22 101.94 27.06Q102.38 26.82 102.95 26.82Q103.51 26.82 103.88 27.09Q104.62 27.61 104.62 29.17L104.62 36L110.27 36L110.27 28.19Q110.27 25.12 108.73 23.6L108.73 23.6Q108.36 23.23 107.92 22.94ZM135.84 23.68Q133.94 22.07 130.34 22.07Q128.7 22.07 127.03 22.49Q125.37 22.9 124.2 23.62L126 27.35Q126.67 26.85 127.62 26.56Q128.57 26.27 129.5 26.27Q131.11 26.27 131.72 27.06Q131.99 27.39 132.07 27.87L129.79 27.87Q126.64 27.87 125.09 28.92Q124.46 29.35 124.08 29.95Q123.54 30.8 123.54 32Q123.54 32.83 123.83 33.56Q123.95 33.87 124.13 34.16Q124.22 34.3 124.31 34.43Q124.89 35.2 125.86 35.68Q126.99 36.25 128.62 36.25Q130.67 36.25 131.75 35.22Q132.21 34.8 132.5 34.19L132.5 36L137.75 36L137.75 28.65Q137.75 25.71 136.28 24.11Q136.08 23.88 135.84 23.68ZM155.72 33.27L155.72 22.32L150.35 22.32L150.35 23.87Q150.06 23.46 149.7 23.14Q148.46 22.07 146.29 22.07Q145.3 22.07 144.39 22.33Q143.69 22.53 143.03 22.88Q142.39 23.23 141.85 23.71Q141.13 24.34 140.62 25.2Q140.51 25.38 140.42 25.56Q139.72 26.93 139.72 28.65Q139.72 30.3 140.37 31.64Q140.48 31.88 140.62 32.11Q141.15 33 141.9 33.65Q142.42 34.1 143.03 34.43Q143.69 34.78 144.39 34.98Q145.3 35.24 146.29 35.24Q148.43 35.24 149.67 34.19Q149.88 34.01 150.07 33.8L150.07 34.05Q150.07 35.3 149.45 36Q149.38 36.09 149.3 36.17Q148.52 36.89 146.82 36.89Q145.7 36.89 144.47 36.52Q143.25 36.15 142.44 35.54L140.54 39.39Q141.8 40.22 143.57 40.66Q145.35 41.1 147.39 41.1Q151.4 41.1 153.56 39.13Q153.78 38.93 153.98 38.71Q155.72 36.77 155.72 33.27ZM172.69 30.47Q172.77 29.27 172.77 29.15Q172.77 26.95 171.79 25.37Q171.77 25.34 171.76 25.32Q171.27 24.55 170.62 23.96Q169.92 23.32 169.03 22.9Q168.92 22.84 168.81 22.79Q167.19 22.07 165.25 22.07Q163.11 22.07 161.39 22.92Q161.33 22.94 161.28 22.97Q160.19 23.52 159.39 24.35Q158.9 24.87 158.51 25.48Q158.24 25.91 158.05 26.36Q157.5 27.63 157.5 29.15Q157.5 30.47 157.94 31.63Q158.17 32.24 158.52 32.8Q158.75 33.17 159.03 33.5Q159.98 34.63 161.42 35.34Q163.29 36.25 165.77 36.25Q169.34 36.25 171.32 34.47Q171.54 34.27 171.75 34.05L168.79 31.07Q168.07 31.62 167.46 31.84Q166.85 32.07 165.94 32.07Q164.89 32.07 164.19 31.66Q163.88 31.48 163.65 31.23Q163.36 30.9 163.2 30.47L172.69 30.47ZM201.03 35.34Q202.85 36.25 205.12 36.25Q207.42 36.25 209.23 35.34Q210.54 34.67 211.43 33.65Q211.78 33.26 212.06 32.81Q212.32 32.39 212.52 31.94Q213.07 30.66 213.07 29.15Q213.07 27.63 212.52 26.36Q212.32 25.91 212.06 25.48Q211.75 24.99 211.36 24.56Q210.49 23.59 209.23 22.97Q207.42 22.07 205.12 22.07Q202.85 22.07 201.03 22.97Q199.79 23.59 198.92 24.54Q198.52 24.98 198.2 25.48Q197.91 25.93 197.71 26.41Q197.17 27.66 197.17 29.15Q197.17 30.63 197.71 31.89Q197.91 32.36 198.2 32.81Q198.49 33.27 198.84 33.67Q199.74 34.68 201.03 35.34ZM217.98 35.34Q219.8 36.25 222.07 36.25Q224.37 36.25 226.18 35.34Q227.49 34.67 228.38 33.65Q228.73 33.26 229.01 32.81Q229.27 32.39 229.47 31.94Q230.02 30.66 230.02 29.15Q230.02 27.63 229.47 26.36Q229.27 25.91 229.01 25.48Q228.7 24.99 228.31 24.56Q227.44 23.59 226.18 22.97Q224.37 22.07 222.07 22.07Q219.8 22.07 217.98 22.97Q216.74 23.59 215.87 24.54Q215.47 24.98 215.15 25.48Q214.86 25.93 214.66 26.41Q214.12 27.66 214.12 29.15Q214.12 30.63 214.66 31.89Q214.86 32.36 215.15 32.81Q215.44 33.27 215.79 33.67Q216.69 34.68 217.98 35.34ZM92.67 22.32L87.02 22.32L87.02 36L92.67 36L92.67 22.32ZM164.06 26.24Q164.58 25.92 165.3 25.92Q165.99 25.92 166.5 26.23Q166.63 26.31 166.74 26.41Q166.86 26.51 166.96 26.62Q167.36 27.07 167.49 27.74L163.1 27.74Q163.25 26.99 163.7 26.53Q163.77 26.46 163.84 26.39Q163.95 26.31 164.06 26.24ZM149.03 30.55Q148.5 30.84 147.8 30.84Q147.12 30.84 146.59 30.56Q146.33 30.43 146.12 30.23Q145.86 30 145.7 29.7Q145.45 29.24 145.45 28.65Q145.45 28.02 145.72 27.55Q145.87 27.29 146.1 27.07Q146.27 26.92 146.47 26.8Q147.03 26.47 147.8 26.47Q148.5 26.47 149.04 26.77Q149.26 26.9 149.46 27.07Q149.7 27.29 149.86 27.56Q150.12 28.03 150.12 28.65Q150.12 29.25 149.86 29.72Q149.71 30 149.46 30.23Q149.26 30.42 149.03 30.55ZM206.07 31.64Q205.65 31.84 205.12 31.84Q204.59 31.84 204.16 31.63Q203.8 31.46 203.52 31.14Q202.9 30.42 202.9 29.15Q202.9 27.87 203.52 27.17Q203.8 26.86 204.15 26.68Q204.58 26.47 205.12 26.47Q205.66 26.47 206.09 26.68Q206.44 26.85 206.72 27.17Q207.34 27.87 207.34 29.15Q207.34 30.42 206.72 31.14Q206.43 31.46 206.07 31.64ZM223.02 31.64Q222.6 31.84 222.07 31.84Q221.54 31.84 221.11 31.63Q220.75 31.46 220.47 31.14Q219.85 30.42 219.85 29.15Q219.85 27.87 220.47 27.17Q220.75 26.86 221.1 26.68Q221.53 26.47 222.07 26.47Q222.61 26.47 223.04 26.68Q223.39 26.85 223.67 27.17Q224.29 27.87 224.29 29.15Q224.29 30.42 223.67 31.14Q223.38 31.46 223.02 31.64ZM240.12 31.63Q239.68 31.84 239.15 31.84Q238.61 31.84 238.18 31.63Q237.83 31.46 237.54 31.14Q236.92 30.42 236.92 29.15Q236.92 27.87 237.54 27.17Q237.82 26.86 238.17 26.68Q238.6 26.47 239.15 26.47Q239.69 26.47 240.13 26.69Q240.47 26.86 240.74 27.17Q241.37 27.87 241.37 29.15Q241.37 30.42 240.74 31.14Q240.47 31.45 240.12 31.63ZM131.06 32.7Q130.72 32.85 130.32 32.85Q129.71 32.85 129.34 32.55Q129.34 32.54 129.33 32.53Q129.15 32.38 129.06 32.18Q128.97 31.99 128.97 31.75Q128.97 31.39 129.13 31.15Q129.5 30.59 130.7 30.59L132.1 30.59L132.1 31.55Q131.89 32.14 131.48 32.46Q131.44 32.49 131.39 32.52Q131.23 32.63 131.06 32.7Z" fill="#000000" fill-opacity="1.000000" fill-rule="evenodd"/>
</svg>
